# xmcd
#
# Track frame offsets: 
#        182
#        10630
#        21957
#        34652
#        47145
#        59957
#        71740
#        83170
#        94230
#        103702
#        115840
#        126535
#        135050
#        147432
#        158857
#        168400
#        178322
#        188170
#        198525
#        210530
#        220910
#        231062
#        244120
#        255442
#        263930
#
# Disc length: 3655 seconds
#
# Revision: 14
# Processed by: cddbd v1.5.2PL0 Copyright (c) Steve Scherf et al.
# Submitted via: ExactAudioCopyFreeDBPlugin 1.0
#
DISCID=710e4519
DTITLE=Various Artist - The Doo Wop Boxes I, II, and III [Rhino box set
DTITLE=s]
DYEAR=1996
DGENRE=Rhythm and Blues
TTITLE0=The Dubs - Could This Be Magic
TTITLE1=The Collegians - Zoom Zoom Zoom
TTITLE2=Robert and Johnny - We Belong Together
TTITLE3=The Fidelity's - The Things I Love
TTITLE4=The Kodoks - Oh Gee, Oh Gosh
TTITLE5=The Imperials - Two People in the World
TTITLE6=The Spaniels - Stormy Weather
TTITLE7=The Falcons - You're So Fine
TTITLE8=The Shirelles - Dedicated to the One I Love
TTITLE9=The Skyliners - This I Swear
TTITLE10=The Sheppards - Island of Love
TTITLE11=The Clovers - Love Potion No. 9
TTITLE12=The Miracles - Bad Girl
TTITLE13=The Royal Teens - Believe Me
TTITLE14=The Impacts - Canadian Sunset
TTITLE15=The Eternals - Babalu's Wedding Day
TTITLE16=The Admirations - The Bells of Rosa Rita
TTITLE17=The Knockouts - Darling Lorraine
TTITLE18=Dion and The Belmonts - Where or When
TTITLE19=The Desires - Let it Please Be You
TTITLE20=The Passions - I Only Want You
TTITLE21=The Temptations - Barbara
TTITLE22=The Crests - Step By Step
TTITLE23=The Desires - Rendezvous with You
TTITLE24=The Paradons - Diamonds and Pearls
EXTD=
EXTT0=The Dubs
EXTT1=The Collegians
EXTT2=Robert and Johnny
EXTT3=The Fidelity's
EXTT4=The Kodoks
EXTT5=The Imperials
EXTT6=The Spaniels
EXTT7=The Falcons
EXTT8=The Shirelles
EXTT9=The Skyliners
EXTT10=The Sheppards
EXTT11=The Clovers
EXTT12=The Miracles
EXTT13=Royal Teens
EXTT14=The Impacts
EXTT15=The Eternals
EXTT16=The Admirations
EXTT17=The Knockouts
EXTT18=Dion and The Belmonts
EXTT19=The Desires
EXTT20=The Passions
EXTT21=The Temptations
EXTT22=The Crests
EXTT23=The Desires
EXTT24=The Paradons
PLAYORDER=
